<svg width="33" height="33" viewBox="0 0 33 33" fill="none" xmlns="http://www.w3.org/2000/svg">
<path d="M9.45333 12.6433H22.8867M9.45333 19.69H19.0333M16.17 31.5833C19.519 31.5826 22.7766 30.4914 25.4503 28.4747C28.124 26.458 30.0683 23.6255 30.9891 20.4056C31.91 17.1858 31.7573 13.7536 30.5541 10.6282C29.351 7.50278 27.1629 4.85415 24.3206 3.08286C21.4784 1.31156 18.1367 0.513946 14.8009 0.810631C11.4651 1.10732 8.31663 2.48217 5.83164 4.72726C3.34664 6.97235 1.66029 9.96557 1.02762 13.2542C0.394945 16.5429 0.850365 19.9482 2.325 22.955C2.505 23.3217 2.565 23.735 2.47333 24.1317L1.11333 30.025C1.07499 30.1904 1.07939 30.3628 1.12611 30.5261C1.17284 30.6893 1.26034 30.8379 1.38039 30.958C1.50044 31.078 1.64908 31.1655 1.8123 31.2122C1.97552 31.259 2.14795 31.2634 2.31333 31.225L8.205 29.8633C8.60279 29.7762 9.01846 29.8292 9.38167 30.0133C11.494 31.0507 13.8167 31.5879 16.17 31.5833Z" stroke="#3AAFA9" stroke-width="1.5" stroke-linecap="round" stroke-linejoin="round"/>
</svg>
