<svg width="36" height="18" viewBox="0 0 36 18" fill="none" xmlns="http://www.w3.org/2000/svg">
<path d="M27.1025 0.26239C24.1775 0.11239 21.5775 1.36239 19.8775 3.42489C19.8775 3.42489 17.965 5.89989 17.965 5.88739C17.965 5.88739 15.5525 9.04989 15.565 9.04989L13.49 11.7749L13.3275 11.9874C12.14 13.5749 10.04 14.4624 7.82745 13.8124C6.99904 13.5626 6.25153 13.098 5.66092 12.4657C5.07032 11.8333 4.65767 11.0559 4.46495 10.2124C4.29263 9.48194 4.28758 8.722 4.45019 7.98933C4.6128 7.25666 4.93887 6.57021 5.40403 5.98125C5.86918 5.39229 6.46141 4.91605 7.13647 4.58811C7.81152 4.26016 8.55196 4.08899 9.30245 4.08739C10.815 4.08739 11.94 4.72489 12.715 5.39989C13.54 6.12489 14.8025 6.01239 15.4775 5.13739C16.065 4.37489 15.99 3.27489 15.29 2.62489C11.34 -1.00011 3.86495 -0.175112 1.47745 4.86239C-1.62255 11.3999 3.10245 17.8499 9.30245 17.8499C12.0275 17.8499 14.465 16.6374 16.0775 14.6874L16.615 13.9874C16.615 13.9874 17.9775 12.1999 17.9775 12.2124C17.9775 12.2124 20.39 9.04989 20.3775 9.04989L22.49 6.28739L22.64 6.09989C23.7275 4.62489 25.6025 3.78739 27.665 4.18739C29.49 4.54989 31.0025 5.97489 31.4524 7.78739C32.2775 11.0749 29.8025 14.0374 26.64 14.0374C25.1525 14.0374 24.0275 13.3999 23.2525 12.7124C23.0567 12.5408 22.8278 12.4112 22.58 12.3317C22.3321 12.2522 22.0705 12.2245 21.8115 12.2503C21.5525 12.276 21.3015 12.3548 21.0742 12.4816C20.8468 12.6084 20.648 12.7805 20.49 12.9874C19.8775 13.7874 19.99 14.8999 20.74 15.5749C21.9025 16.6124 23.89 17.8749 26.64 17.8749C31.89 17.8749 36.0775 13.2624 35.365 7.87489C34.815 3.72489 31.265 0.47489 27.1025 0.26239Z" fill="#FFFCF1"/>
</svg>
