<svg width="40" height="43" viewBox="0 0 40 43" fill="none" xmlns="http://www.w3.org/2000/svg">
<path d="M20 18.8125C18.2319 18.8125 16.5362 18.1046 15.286 16.8446C14.0357 15.5846 13.3333 13.8757 13.3333 12.0938C13.3333 10.3118 14.0357 8.60289 15.286 7.34288C16.5362 6.08287 18.2319 5.375 20 5.375C21.7681 5.375 23.4638 6.08287 24.714 7.34288C25.9643 8.60289 26.6667 10.3118 26.6667 12.0938C26.6667 13.8757 25.9643 15.5846 24.714 16.8446C23.4638 18.1046 21.7681 18.8125 20 18.8125ZM20 8.0625C17.7867 8.0625 16 9.86312 16 12.0938C16 14.3244 17.7867 16.125 20 16.125C22.2133 16.125 24 14.3244 24 12.0938C24 9.86312 22.2133 8.0625 20 8.0625Z" fill="#3AAFA9"/>
<path d="M36 29.5625C35.2533 29.5625 34.6667 28.9713 34.6667 28.2188C34.6667 27.4662 35.2533 26.875 36 26.875C36.7467 26.875 37.3333 26.2838 37.3333 25.5312C37.3333 23.7493 36.631 22.0404 35.3807 20.7804C34.1305 19.5204 32.4348 18.8125 30.6667 18.8125H28C27.2533 18.8125 26.6667 18.2212 26.6667 17.4688C26.6667 16.7163 27.2533 16.125 28 16.125C30.2133 16.125 32 14.3244 32 12.0938C32 9.86312 30.2133 8.0625 28 8.0625C27.2533 8.0625 26.6667 7.47125 26.6667 6.71875C26.6667 5.96625 27.2533 5.375 28 5.375C29.7681 5.375 31.4638 6.08287 32.714 7.34288C33.9643 8.60289 34.6667 10.3118 34.6667 12.0938C34.6667 13.76 34.08 15.265 33.0667 16.4475C37.04 17.5225 40 21.1775 40 25.5312C40 27.7619 38.2133 29.5625 36 29.5625ZM4 29.5625C1.78667 29.5625 0 27.7619 0 25.5312C0 21.1775 2.93333 17.5225 6.93333 16.4475C5.94667 15.265 5.33333 13.76 5.33333 12.0938C5.33333 10.3118 6.03571 8.60289 7.28595 7.34288C8.5362 6.08287 10.2319 5.375 12 5.375C12.7467 5.375 13.3333 5.96625 13.3333 6.71875C13.3333 7.47125 12.7467 8.0625 12 8.0625C9.78667 8.0625 8 9.86312 8 12.0938C8 14.3244 9.78667 16.125 12 16.125C12.7467 16.125 13.3333 16.7163 13.3333 17.4688C13.3333 18.2212 12.7467 18.8125 12 18.8125H9.33333C7.56522 18.8125 5.86953 19.5204 4.61929 20.7804C3.36905 22.0404 2.66667 23.7493 2.66667 25.5312C2.66667 26.2838 3.25333 26.875 4 26.875C4.74667 26.875 5.33333 27.4662 5.33333 28.2188C5.33333 28.9713 4.74667 29.5625 4 29.5625ZM28 37.625H12C9.78667 37.625 8 35.8244 8 33.5938V30.9062C8 25.7194 12.1867 21.5 17.3333 21.5H22.6667C27.8133 21.5 32 25.7194 32 30.9062V33.5938C32 35.8244 30.2133 37.625 28 37.625ZM17.3333 24.1875C15.5652 24.1875 13.8695 24.8954 12.6193 26.1554C11.369 27.4154 10.6667 29.1243 10.6667 30.9062V33.5938C10.6667 34.3463 11.2533 34.9375 12 34.9375H28C28.7467 34.9375 29.3333 34.3463 29.3333 33.5938V30.9062C29.3333 29.1243 28.631 27.4154 27.3807 26.1554C26.1305 24.8954 24.4348 24.1875 22.6667 24.1875H17.3333Z" fill="#3AAFA9"/>
</svg>
