<svg width="40" height="40" viewBox="0 0 40 40" fill="none" xmlns="http://www.w3.org/2000/svg">
<path d="M34.1633 25.8334H5.83331V34.1668H34.1633V25.8334ZM36.575 24.1201L36.61 24.2234L36.6483 24.3901L36.665 24.5568V35.4168C36.6649 35.7193 36.555 36.0116 36.3558 36.2393C36.1566 36.467 35.8815 36.6148 35.5816 36.6551L35.415 36.6668H4.58331C4.28125 36.6667 3.98941 36.5574 3.76176 36.3588C3.53411 36.1603 3.38606 35.886 3.34498 35.5868L3.33331 35.4168V24.5834L3.33665 24.4968L3.35331 24.3534C3.37257 24.2665 3.39876 24.1812 3.43165 24.0984L8.03165 14.0668C8.11841 13.8771 8.25124 13.7122 8.41805 13.587C8.58485 13.4619 8.78032 13.3804 8.98665 13.3501L9.16665 13.3384L13.4 13.3368L12.0833 15.6201L11.9716 15.8368H9.96665L6.52998 23.3334H33.45L30.0716 16.0901L31.5083 13.5951C31.6205 13.6795 31.7161 13.7818 31.795 13.9018L31.8833 14.0601L36.575 24.1201ZM22.275 3.42676L22.4283 3.50176L31.075 8.50676C31.6216 8.82343 31.8383 9.49176 31.6066 10.0618L31.5316 10.2151L26.8533 18.3334H28.75C29.0689 18.3302 29.3771 18.449 29.6113 18.6656C29.8455 18.8821 29.9881 19.18 30.0098 19.4982C30.0315 19.8165 29.9308 20.131 29.7282 20.3773C29.5255 20.6237 29.2364 20.7833 28.92 20.8234L28.75 20.8351L25.4133 20.8334V20.8384H18.615L18.61 20.8334H11.25C10.9353 20.8305 10.6332 20.7089 10.4042 20.493C10.1752 20.2771 10.0361 19.9827 10.0146 19.6687C9.99314 19.3547 10.0909 19.0442 10.2884 18.7991C10.4859 18.5541 10.7686 18.3925 11.08 18.3468L11.25 18.3351L14.2883 18.3334L13.985 18.1584C13.7237 18.007 13.5261 17.7661 13.4287 17.4802C13.3312 17.1944 13.3406 16.8829 13.455 16.6034L13.5283 16.4501L20.7233 3.95676C21.04 3.40843 21.7066 3.1901 22.275 3.42343M22.2583 6.2901L16.315 16.6168L19.2783 18.3334H23.9733L28.7483 10.0451L22.2583 6.2901Z" fill="#3AAFA9"/>
</svg>
