<svg width="100" height="100" viewBox="0 0 100 100" fill="none" xmlns="http://www.w3.org/2000/svg">
<g clip-path="url(#clip0_236_5432)">
<circle cx="50" cy="50" r="50" fill="#DAE4FC"/>
<path d="M93.8543 125.582C95.4924 124.884 99.4829 123.512 100.902 123.158C102.21 122.832 103.334 122.687 103.644 122.805C103.933 123.34 104.103 123.427 104.28 123.674C104.581 123.997 105.257 123.968 106.04 123.597C106.382 123.435 106.691 123.223 106.727 123.126C106.762 123.028 106.919 122.784 107.075 122.583C107.456 122.093 107.949 120.989 107.949 120.625C107.949 120.464 108.016 120.265 108.098 120.184C108.279 120.003 108.293 119.813 108.123 119.847C107.982 119.875 107.928 119.35 108.063 119.267C108.185 119.192 108.167 119.023 108.041 119.053C107.982 119.066 107.835 118.743 107.714 118.333C107.438 117.399 107.053 116.736 106.413 116.096C105.781 115.463 105.341 115.256 104.627 115.256C104.042 115.256 103.735 115.361 103.482 115.646C103.298 115.854 102.585 116.07 101.1 116.367C100.032 116.581 99.7255 116.596 96.3358 116.594C93.6441 116.593 92.2919 116.549 91.0751 116.424C90.1744 116.331 89.064 116.225 88.6075 116.188C87.8242 116.126 87.7807 116.132 87.8347 116.309C87.8661 116.413 88.0527 117.033 88.2493 117.688C89.1766 120.779 89.8502 122.38 91.0177 124.267C91.6212 125.243 92.3263 126.181 92.4422 126.163C92.4819 126.157 93.1173 125.895 93.8543 125.582ZM104.45 123.19C104.224 123.087 104.243 123.058 105.09 122.23C105.937 121.401 106.276 121.215 105.912 121.779C105.55 122.342 104.82 123.296 104.753 123.296C104.714 123.296 104.578 123.248 104.45 123.19ZM18.9645 57.8826C19.6045 57.7535 20.7015 57.3042 20.7015 57.1713C20.7015 57.1273 20.7736 57.0911 20.8618 57.0911C21.1142 57.0911 21.9918 56.5778 21.9918 56.4302C21.9918 56.3569 22.0361 56.2971 22.0903 56.2971C22.31 56.2971 22.6877 55.8614 22.6289 55.6758C22.5953 55.5702 22.6364 55.4148 22.7233 55.3188C22.9822 55.0326 23.3442 54.1096 23.5657 53.1705C23.6815 52.6791 24.0224 51.5635 24.3233 50.6912C24.6241 49.8189 24.8703 48.938 24.8703 48.7334C24.8703 48.319 24.7697 48.2411 23.7369 47.8547C23.2094 47.6574 23.0593 47.5208 23.2863 47.4452C23.3432 47.4262 23.4806 47.056 23.5917 46.6223C23.7751 45.9063 23.7793 45.8233 23.636 45.7186C23.4359 45.5723 22.7421 45.6929 22.204 45.9673C21.8336 46.1563 21.0985 46.9032 21.0985 47.0907C21.0985 47.1392 20.9756 47.0939 20.8255 46.9901C20.2687 46.6049 19.1595 46.1566 18.7443 46.1491C18.0815 46.137 17.2275 46.8398 17.2275 47.3975C17.2275 47.483 17.0834 47.5674 16.8689 47.6076C16.4739 47.6817 16.0364 48.0546 16.0364 48.3172C16.0364 48.4097 15.8802 48.6369 15.6895 48.8222C15.4599 49.0452 15.3221 49.2866 15.2822 49.5361C15.2283 49.8729 15.1651 49.9411 14.6887 50.1748C14.1013 50.4628 13.956 50.7332 14.1329 51.2083C14.5424 52.3081 16.4877 56.3546 16.8965 56.957C17.0737 57.2181 17.108 57.3432 17.029 57.4384C16.9487 57.5352 16.9881 57.6189 17.1875 57.7758C17.4729 58.0003 18.1726 58.0424 18.9645 57.8826ZM19.747 53.3798L19.8113 52.5749L19.5523 52.9003C19.1013 53.4665 18.2845 53.7588 17.7567 53.5427C17.6291 53.4904 17.7228 53.4534 18.0712 53.4186C18.5395 53.3718 18.5658 53.3542 18.5368 53.1055C18.4995 52.7852 18.6769 52.6419 18.7655 52.9208C18.8535 53.1981 18.9193 53.1767 19.3585 52.7269L19.7431 52.3329L19.569 51.0807C19.4733 50.3919 19.4145 49.8089 19.4385 49.7849C19.4625 49.7609 19.5631 50.2133 19.6619 50.7904C19.7608 51.3674 19.8771 51.8614 19.9202 51.888C19.9633 51.9146 20.0899 51.8794 20.2014 51.8097C20.3822 51.6969 20.3984 51.6128 20.3503 51.0372L20.2962 50.3912L20.4744 50.7386C20.6984 51.1756 21.0336 51.2325 21.441 50.9029C21.6851 50.7054 21.7374 50.5853 21.7547 50.1812C21.7661 49.9146 21.7795 49.638 22.1749 49.3434C22.3316 49.15 22.3811 49.1389 22.594 49.2493C23.0176 49.4688 23.1829 49.6699 23.1829 49.9649C23.1829 50.5104 22.7469 51.057 21.8186 51.6753C21.1564 52.1164 20.6127 52.775 20.2455 53.581C19.809 54.5389 19.6592 54.4785 19.747 53.3798ZM79.2779 88.1597C79.5621 87.8754 79.5868 87.8692 79.8608 88.0108C80.0182 88.0922 80.3545 88.1588 80.6083 88.1588C81.0008 88.1588 81.1147 88.1107 81.3713 87.8362C81.6439 87.5447 81.7191 87.5168 82.1521 87.5473C82.8043 87.5931 83.2798 87.418 83.5159 87.0452C83.6912 86.7682 83.7675 86.7341 84.2707 86.7069C85.4019 86.6458 85.6263 86.3495 85.6705 84.8589C85.6867 84.3161 85.7539 83.6466 85.82 83.3712C85.9948 82.6424 85.8788 81.6645 85.4781 80.4918C84.8825 78.749 84.8713 78.7293 84.4673 78.7293C84.2714 78.7293 84.1412 78.7709 84.1734 78.8232C84.2386 78.9286 83.6207 79.1249 83.2211 79.1258C83.0776 79.1261 82.9086 79.064 82.8454 78.9879C82.7821 78.9118 82.5803 78.8211 82.3966 78.7867C82.0682 78.7251 81.4915 78.3541 81.5825 78.2631C81.6081 78.2375 81.5392 78.1266 81.4294 78.0167C81.2532 77.8406 81.2336 77.7133 81.2639 76.9403C81.3019 75.9685 81.4296 75.6982 82.0518 75.2716C82.3418 75.0728 82.4852 75.0448 83.0563 75.076C83.6111 75.1064 83.7973 75.1652 84.1698 75.4277C84.4761 75.6436 84.6393 75.7069 84.6876 75.6287C84.8676 75.3373 84.9055 60.9982 84.7315 58.977C84.4682 55.9196 83.6588 51.3733 83.2269 50.5267C83.0287 50.1382 79.481 46.9441 77.2086 45.1081C75.4945 43.7233 71.8608 41.1285 71.7729 41.2266C71.7566 41.2447 71.6465 41.6615 71.5283 42.1528C71.2663 43.2421 70.8698 44.567 70.2364 46.4706C69.973 47.2621 69.5257 48.6245 69.2424 49.4979C68.9591 50.3714 68.4626 51.6384 68.1392 52.3136C67.8157 52.9887 67.5511 53.5531 67.5511 53.5676C67.5511 53.5821 67.6516 53.6161 67.7744 53.6431C67.8972 53.6701 68.8464 53.94 69.8836 54.2428C70.9209 54.5457 72.4842 54.9812 73.3576 55.2107C74.2311 55.4402 74.9758 55.6558 75.0126 55.6896C75.0493 55.7235 75.1972 56.4174 75.341 57.2316C75.622 58.8223 76.1632 61.2693 76.7808 63.7414C77.6076 67.0512 78.2491 70.5006 78.5118 73.0477C78.7341 75.2044 78.7221 75.6121 78.425 76.0016C78.139 76.3767 78.029 76.7489 78.1197 77.0348C78.169 77.1902 78.2682 77.2405 78.5257 77.2405C78.7407 77.2405 78.8664 77.2885 78.8664 77.3707C78.8664 77.4423 78.1407 78.1612 77.2535 78.9681C76.3663 79.7751 75.5695 80.5432 75.4826 80.675C75.3958 80.8068 75.2677 81.2334 75.1981 81.6229C75.1285 82.0124 74.8981 82.8474 74.6861 83.4785C74.4741 84.1096 74.3006 84.705 74.3006 84.8019C74.3006 85.2066 75.3048 85.5249 75.721 85.2521C76.1394 84.978 76.7383 83.5147 76.9079 82.3522C76.9323 82.1849 77.0343 82.2462 77.5567 82.7419C77.8977 83.0654 78.2015 83.4294 78.232 83.5508C78.2946 83.8004 77.956 85.6039 77.6678 86.5563C77.3538 87.5934 77.4289 88.0263 77.9711 88.3067C78.4514 88.555 78.9372 88.5003 79.2779 88.1597ZM74.6545 54.436C74.6904 54.2313 74.8222 53.8845 74.9473 53.6654C75.1879 53.2441 76.26 52.1687 76.3499 52.2586C76.3789 52.2877 76.2266 52.5717 76.0112 52.8899C75.7958 53.208 75.5395 53.6246 75.4416 53.8156C75.2079 54.272 74.7972 54.8082 74.6813 54.8082C74.6296 54.8082 74.6179 54.6452 74.6545 54.436ZM49.5468 161.363C50.71 161.11 51.2174 160.712 51.4749 159.851C51.5438 159.621 51.6339 159.453 51.6753 159.479C51.7167 159.504 51.8894 159.735 52.059 159.991C52.2287 160.247 52.4334 160.466 52.5138 160.478C52.683 160.503 52.9298 159.769 53.0252 158.957C53.0954 158.36 52.8977 157.937 52.4923 157.639C52.3904 157.639 51.7316 158.341 51.5813 158.609C51.4568 158.832 51.3152 158.702 50.6783 157.78C49.6128 156.239 48.3427 153.162 46.7152 148.18C45.7249 145.148 45.4204 143.842 44.6751 139.428C43.9607 135.197 43.4175 132.659 42.9357 131.3C42.5957 130.341 41.5534 128.06 41.4551 128.06C41.4215 128.06 40.8809 128.398 40.2538 128.811C39.6267 129.224 38.2993 129.994 37.3038 130.523C36.2391 131.089 35.4932 131.544 35.4923 131.629C35.4913 131.732 35.4605 131.742 35.3834 131.665C35.3062 131.588 35.1591 131.622 34.8623 131.787C34.1545 132.179 31.4141 133.235 30.5109 133.464L29.6501 133.681L31.1369 136.099C31.9547 137.429 33.6201 140.016 34.8378 141.849C37.2872 145.537 38.9649 148.222 38.9649 148.455C38.9649 148.538 39.0079 148.607 39.0605 148.607C39.2911 148.607 41.4207 152.548 42.2852 154.575C42.4861 155.046 42.8373 156.005 43.0658 156.705L43.4811 157.98L43.901 158.1C45.0436 158.429 46.2315 159.38 46.6755 160.324C46.8633 160.723 46.92 160.76 47.8951 161.126C48.4576 161.337 48.9229 161.507 48.929 161.502C48.9352 161.498 49.2132 161.435 49.5468 161.363ZM25.923 75.407C28.1039 74.6638 29.6406 73.0086 31.8546 69.0179C32.5443 67.7747 32.6828 67.456 32.6088 67.2809C32.5591 67.163 32.3804 66.2626 32.212 65.2799C31.8639 63.249 31.1559 59.7168 31.0401 59.4329C30.9466 59.2039 30.7509 59.1426 27.6913 58.3848C26.3767 58.0591 25.2293 57.7652 25.1415 57.7314C24.9658 57.6641 24.8502 57.984 24.6667 59.0461C24.4697 60.1867 24.494 60.1463 24.2364 59.7611C24.1124 59.5755 23.7772 58.9887 23.4916 58.4572L22.9723 57.4908L22.4519 57.8753C21.2055 58.7961 19.8179 59.2864 18.4347 59.295L17.508 59.3006L17.5705 59.6337C17.6048 59.817 17.7652 61.0283 17.9269 62.3256C18.4811 66.7724 18.829 68.1183 20.0521 70.5453C21.2014 72.826 22.964 75.1488 23.8149 75.5043C24.3277 75.7186 25.1153 75.6822 25.923 75.407ZM28.8583 66.2725C28.3647 65.1312 27.4266 63.757 26.2308 62.4231C25.85 61.9982 25.5574 61.6316 25.5808 61.6083C25.6041 61.5849 26.1403 62.0665 26.7725 62.6785C27.6233 63.5021 28.0213 63.9715 28.3047 64.4858C28.7324 65.262 29.2418 66.6187 29.2298 66.9497C29.2246 67.0928 29.204 67.1155 29.1688 67.0169C29.1397 66.935 28.9999 66.6 28.8583 66.2725Z" fill="#B54333" stroke="#B54333" stroke-width="0.441667"/>
<path d="M33.6246 65.5764C34.1349 64.5399 34.6401 63.4315 34.7473 63.1134L34.9424 62.535L34.6598 62.0216C33.1768 59.3273 31.922 56.5235 31.1764 54.2376C31.0295 53.7872 30.8753 53.4187 30.8335 53.4187C30.7415 53.4187 30.7889 55.3622 30.9354 57.5875C31.0198 58.8714 31.1681 59.8579 31.6219 62.1534C31.9403 63.7638 32.2763 65.5505 32.3686 66.1237C32.4609 66.6969 32.5724 67.2323 32.6166 67.3134C32.673 67.417 32.9728 66.9004 33.6246 65.5764Z" fill="#72251D" stroke="#72251D" stroke-width="0.441667"/>
<path d="M20.2458 53.581C20.613 52.7751 21.1567 52.1165 21.8189 51.6754C23.3179 50.6768 23.6064 49.7741 22.5943 49.2493C22.3814 49.1389 22.3319 49.1501 21.7847 49.5665C21.7798 49.638 21.7664 49.9146 21.755 50.1812C21.7377 50.5853 21.6854 50.7054 21.4413 50.903C21.0339 51.2325 20.6987 51.1756 20.4747 50.7387L20.2965 50.3913L20.3506 51.0373C20.3987 51.6128 20.3825 51.6969 20.2017 51.8098C20.0901 51.8795 19.9636 51.9147 19.9205 51.8881C19.8774 51.8615 19.7611 51.3675 19.6622 50.7904C19.5634 50.2133 19.4628 49.7609 19.4388 49.7849C19.4148 49.8089 19.4735 50.392 19.5693 51.0807L19.7434 52.333L19.3588 52.7269C18.9196 53.1768 18.8538 53.1982 18.7657 52.9209C18.6772 52.6419 18.4997 52.7853 18.5371 53.1056C18.566 53.3542 18.5398 53.3718 18.0714 53.4186C17.723 53.4535 17.6293 53.4904 17.757 53.5427C18.2847 53.7588 19.1016 53.4666 19.5526 52.9003L19.8116 52.575L19.7473 53.3798C19.6595 54.4785 19.8092 54.539 20.2458 53.581Z" fill="#6A221B" stroke="#6A221B" stroke-width="0.441667"/>
<path d="M56.4836 107.647C61.5021 103.631 63.6342 101.802 65.72 99.7229C66.5419 98.9037 67.4248 97.9363 67.6819 97.5733C68.7029 96.1322 69.4749 94.2423 69.7953 92.3994C69.9173 91.6975 69.9423 91.0902 69.9022 89.7965C69.8483 88.0565 69.7239 87.2751 69.2746 85.8529L69.0311 85.0818L68.5638 85.0802C68.3069 85.0793 67.2704 84.9901 66.2605 84.8819C65.2505 84.7738 64.2379 84.6851 64.0102 84.685C63.5357 84.6847 63.5875 84.5648 63.3243 86.2728C63.1468 87.4254 62.637 89.0633 62.1675 89.9891C61.7448 90.8228 61.7138 90.5448 62.1288 89.6414C62.5967 88.6229 62.9348 87.4959 63.1246 86.3225C63.213 85.7766 63.3091 85.1847 63.3381 85.0073L63.391 84.6847H62.2946H61.1983V85.2644C61.1983 87.4125 59.6461 89.8805 57.638 90.9253C56.6466 91.441 55.967 91.5931 54.0518 91.7276C51.1493 91.9314 49.2826 92.2312 47.8233 92.7275C47.3527 92.8876 46.9512 93.0021 46.9311 92.982C46.8565 92.9074 48.3203 91.6699 48.9029 91.3149C49.716 90.8196 50.8013 90.4733 52.1163 90.2895C54.2458 89.9918 54.5453 89.9256 55.213 89.6051C56.4898 88.9923 57.5549 87.5379 57.9694 85.8415C58.0607 85.4678 58.1153 85.1418 58.0907 85.1172C58.0126 85.0391 54.7567 85.5775 53.1741 85.9302C50.797 86.4599 49.0092 87.0075 46.8556 87.8655C45.7638 88.3006 44.7923 88.6561 44.6968 88.6557C44.4871 88.6548 44.4881 88.6213 44.67 89.5716C44.8414 90.4675 45.1186 93.1179 45.1186 93.8613C45.1186 94.3068 45.0823 94.4015 44.8444 94.5773C44.5755 94.7762 44.0028 95.2861 42.1657 96.9628C41.6607 97.4237 41.2476 97.8556 41.2476 97.9227C41.2476 97.9927 41.5125 98.0993 41.8679 98.1725C42.2092 98.2426 42.8606 98.4539 43.3157 98.642C45.2175 99.428 46.4138 100.151 48.1956 101.591C48.8318 102.105 49.2745 102.398 49.5602 102.42C49.404 102.576 49.4646 102.657 50.5152 103.686C52.1395 105.277 53.8242 107.396 54.4862 108.68C54.5777 108.858 54.6849 109.002 54.7244 109C54.7639 108.998 55.5555 108.389 56.4836 107.647ZM52.4105 100.175C52.4422 100.123 52.946 99.7125 53.5299 99.2617C55.0385 98.097 55.984 97.2613 57.6003 95.6637C58.3782 94.8948 59.0147 94.3334 59.0147 94.416C59.0147 94.6081 57.2865 96.3714 55.9285 97.565C54.013 99.2485 52.1108 100.66 52.4105 100.175Z" fill="#F7A62A" stroke="#F7A62A" stroke-width="0.441667"/>
<path d="M62.1679 89.9891C62.6374 89.0633 63.1472 87.4254 63.3247 86.2728C63.5879 84.5648 63.536 84.6847 64.0106 84.685C64.2383 84.6851 65.2509 84.7738 66.2609 84.882C67.2708 84.9901 68.3074 85.0793 68.5642 85.0802L69.0312 85.0818L68.8828 84.6599C68.7679 84.3337 68.1826 82.9732 68.0915 82.8208C68.0823 82.8056 67.4992 82.976 66.7957 83.1994C66.092 83.4229 64.6697 83.7759 63.6347 83.9838C62.5998 84.1916 61.7356 84.4138 61.299 84.5346C61.1891 84.6671 61.3048 84.6847 62.2829 84.6847H63.3914L63.3385 85.0073C63.3094 85.1847 63.2134 85.7766 63.125 86.3225C62.9352 87.4959 62.5971 88.6229 62.1292 89.6414C61.7142 90.5448 61.7451 90.8228 62.1679 89.9891Z" fill="#A33628" stroke="#A33628" stroke-width="0.441667"/>
<path d="M75.0186 54.4856C75.1535 54.3083 75.3439 54.0067 75.4417 53.8157C75.5396 53.6246 75.7959 53.208 76.0113 52.8899C76.2267 52.5718 76.379 52.2877 76.35 52.2586C76.2601 52.1688 75.188 53.2441 74.9474 53.6654C74.6987 54.101 74.534 54.8082 74.6814 54.8082C74.7321 54.8082 74.8837 54.663 75.0186 54.4856Z" fill="#6A221B" stroke="#6A221B" stroke-width="0.441667"/>
<path d="M37.8233 41.5363C37.9871 41.5137 38.4173 41.4084 38.7794 41.3022C39.9043 40.9724 42.0459 39.2828 43.2172 37.8013C44.2137 36.5407 46.0963 33.0823 45.8335 32.9947C45.6577 32.9362 45.0052 31.609 44.6315 30.5498C44.2857 29.5696 43.8284 27.458 43.8284 26.8412C43.8284 26.5406 43.9278 26.2942 44.2343 25.8353C44.6578 25.2009 44.6814 25.1216 44.7822 23.9887C44.8643 23.0661 44.7071 22.5114 44.2276 22.0319C43.8037 21.608 43.3969 21.5434 42.7782 21.8019C42.252 22.0218 40.5868 23.6086 40.2962 24.167C40.004 24.7287 39.8263 24.8242 39.544 24.5714C39.3478 24.3959 39.3405 24.3255 39.4105 23.2939C39.5502 21.2341 39.5459 21.2187 38.5465 20.2458L37.747 19.4675L37.8107 18.9252C37.8458 18.627 37.9857 18.1313 38.1218 17.8236C38.4407 17.1026 38.4465 16.6492 38.1394 16.448C38.013 16.3652 37.611 16.2237 37.246 16.1336L36.5826 15.9698L35.2703 16.3988C33.5883 16.9487 32.7333 17.0194 31.7167 16.6925C31.3324 16.569 31.0042 16.4851 30.9875 16.5061C30.9308 16.5772 30.4097 17.9271 30.0156 19.024C29.7335 19.8091 29.6586 20.1257 29.7477 20.1553C29.9566 20.2249 30.3294 20.6455 30.3294 20.8113C30.3294 20.9403 30.2455 20.958 29.8579 20.9112C29.2264 20.8349 29.126 20.9161 29.2406 21.4105C29.3833 22.0256 29.3603 22.1427 29.0843 22.212C28.9454 22.2468 28.8497 22.3258 28.8717 22.3876C28.9147 22.5087 29.0242 22.5117 29.5776 22.8137C29.6348 23.0741 29.5619 23.1849 28.8424 23.931C28.0335 24.7699 27.876 25.0472 27.9954 25.4234C28.1163 25.8044 28.4893 25.9546 29.2668 25.9349C29.6759 25.9246 30.1944 25.9815 30.4783 26.0677C30.7512 26.1507 31.0583 26.1922 31.1607 26.16C31.282 26.1218 31.3231 26.1397 31.2789 26.2114C31.2416 26.2718 31.0238 26.3257 30.795 26.3312C30.0166 26.3497 29.9283 26.4148 29.4589 27.3167L29.0214 28.1575L29.1388 28.8027C29.2724 29.5364 29.2742 29.582 29.5353 30.4901C29.6931 30.5353 30.1156 30.6038 30.4742 30.6422C30.8328 30.6806 31.1493 30.7494 31.1776 30.7952C31.3443 31.0649 29.8865 31.4352 29.5986 31.1963C29.4823 31.0997 29.4487 31.2333 29.3891 32.0272C29.3269 32.8567 29.3419 33.0189 29.5109 33.3445C29.6169 33.5488 29.8535 33.8036 30.037 33.9108C30.4955 34.1788 31.8948 34.2357 32.9817 34.0307C35.2214 33.6082 38.493 31.9924 39.6501 30.7371C40.1553 30.189 40.4355 29.6218 40.9 28.2071C41.1062 27.5793 41.2803 27.0578 41.2869 27.0483C41.2936 27.0388 41.4821 27.0797 41.7056 27.1393C42.0869 27.2411 42.1534 27.2247 42.7793 26.8747C43.1462 26.6695 43.4664 26.5217 43.4908 26.5462C43.5153 26.5706 43.2208 26.8873 42.8363 27.25C42.1917 27.8581 42.1032 27.9094 41.6985 27.9094H41.2597L40.9961 28.7779C40.0567 31.8728 37.1078 37.3388 36.3774 37.3388C36.2719 37.3388 36.1837 37.3054 36.1815 37.2644C36.1793 37.2234 36.0401 37.0336 35.872 36.8426L35.5665 36.4952L35.6203 36.8588C35.661 37.1338 35.6294 37.263 35.4912 37.3882C35.3134 37.9198 36.0277 38.0369 35.9902 38.1815C36.1662 38.1257 36.2484 38.2383 36.6354 39.0665C37.1194 40.1021 37.1246 40.1181 36.7371 39.7865C36.6582 39.7563 36.5393 39.55 36.4728 39.3281C36.2465 38.5726 35.9188 38.5553 35.8197 39.2937C35.7694 39.6686 35.8539 39.9537 36.3503 41.0845C36.5686 41.5816 36.855 41.6695 37.8233 41.5363ZM29.7232 29.0454C29.4617 28.9102 29.4285 28.8456 29.4552 28.5243L29.4857 28.1575L30.6768 28.1605C31.7653 28.1633 32.8108 28.3271 32.8108 28.4951C32.8108 28.5982 31.9964 29.0109 31.6197 29.0986C31.0173 29.2388 30.0444 29.2115 29.7232 29.0454ZM41.9905 25.2393C42.0397 24.9481 42.005 24.7523 41.8503 24.4491C41.593 23.9448 41.5923 23.8447 41.8465 23.9112C41.9634 23.9417 42.1289 23.891 42.2396 23.7909C42.5016 23.5537 42.8918 23.6668 43.0822 24.0348C43.3489 24.5506 43.2801 24.7778 42.7236 25.221C42.0617 25.7479 41.9039 25.7519 41.9905 25.2393ZM43.7917 24.3609C43.8729 23.5825 43.6713 23.324 42.9222 23.2462L42.3892 23.1908L42.7144 22.8775C43.1212 22.4855 43.613 22.3556 43.7874 22.594C43.946 22.8109 44.0639 23.8345 43.979 24.2561C43.8065 25.1118 43.7076 25.1672 43.7917 24.3609ZM33.2699 22.6894C33.192 22.6595 33.1046 22.5447 33.0757 22.4344C32.8259 22.1142 32.3883 22.5013 32.8108 22.1042C33.0451 21.8479 33.095 21.8359 33.7041 21.8876C34.4961 21.9549 35.2303 22.1949 35.0937 22.755C34.9487 22.8557 33.5742 22.8062 33.2699 22.6894ZM35.8382 21.1927C35.2355 20.9936 34.7571 20.9162 33.853 20.8714C33.853 20.8714 32.6619 20.8124 32.7906 20.2233C33.2254 20.0853 34.3623 20.0061 34.7433 20.0874C35.3759 20.2223 37.1632 21.4632 36.7149 21.4563C36.6695 21.4556 36.2749 21.337 35.8382 21.1927Z" fill="#B54333" stroke="#B54333" stroke-width="0.441667"/>
<path d="M35.0942 22.755C35.2169 22.6699 35.2037 22.6514 35.0197 22.6501C34.7553 22.6484 34.7205 22.4032 34.9701 22.3013C35.2307 22.1948 34.4965 21.9548 33.7046 21.8875C33.0954 21.8358 33.0455 21.8478 32.8112 22.1041C32.0118 22.5531 33.4533 22.2854 33.2703 22.6894C33.5746 22.8062 34.9492 22.8556 35.0942 22.755Z" fill="#2D1612" stroke="#2D1612" stroke-width="0.441667"/>
<path d="M50.9256 161.47C51.4582 161.301 52.0671 160.979 52.34 160.721C52.5608 160.512 52.6427 160.358 52.4788 160.459C52.4323 160.488 52.2511 160.291 52.0762 160.021C51.9013 159.751 51.7228 159.508 51.6793 159.481C51.6358 159.454 51.544 159.621 51.4751 159.851C51.4062 160.081 51.2589 160.398 51.1477 160.554C50.8995 160.903 50.1015 161.287 49.4393 161.376C49.0645 161.426 48.9929 161.461 49.1416 161.519C49.4464 161.638 50.4859 161.61 50.9256 161.47ZM29.4865 27.2696C29.6914 26.8549 29.9011 26.4897 29.9523 26.458C30.0035 26.4263 30.3116 26.3763 30.637 26.3468C30.9623 26.3174 31.2554 26.25 31.2879 26.1973C31.3221 26.1419 31.2685 26.1262 31.161 26.16C31.0586 26.1922 30.7556 26.1523 30.4876 26.0714C30.2196 25.9905 29.7171 25.9242 29.3709 25.9242H28.7416V26.2386C28.7416 26.6703 28.9455 27.8413 29.0382 27.9417C29.0798 27.9868 29.2816 27.6843 29.4865 27.2696ZM36.9121 36.917C38.1814 35.354 40.2542 31.2229 40.9964 28.7779L41.26 27.9093H41.6988C42.1035 27.9093 42.192 27.8581 42.8366 27.25C43.2211 26.8873 43.5156 26.5706 43.4911 26.5461C43.4667 26.5217 43.1465 26.6695 42.7796 26.8747C42.1537 27.2247 42.0872 27.241 41.7059 27.1393C41.4824 27.0797 41.2939 27.0388 41.2872 27.0483C41.2806 27.0578 41.1065 27.5793 40.9003 28.2071C40.4358 29.6217 40.1556 30.189 39.6504 30.7371C38.8294 31.6278 36.7449 32.8327 34.9268 33.4676L34.0301 33.7806L34.4649 34.5423C34.7041 34.9613 35.0426 35.6525 35.2171 36.0786C35.4173 36.5672 35.5549 36.7947 35.5899 36.6948C35.6324 36.5739 35.7147 36.6303 35.9404 36.9353C36.1027 37.1546 36.3106 37.3352 36.4025 37.3365C36.4945 37.3377 36.7238 37.149 36.9121 36.917ZM77.9212 85.5533C78.0629 85.1242 78.2786 83.736 78.2324 83.5515C78.2018 83.4298 77.8974 83.0654 77.5559 82.7419L76.9348 82.1537L76.8735 82.5507C76.8397 82.7691 76.7798 83.0645 76.7402 83.2072C76.6883 83.3941 76.7093 83.4826 76.8151 83.5232C76.8959 83.5541 76.9945 83.7268 77.034 83.9068C77.1176 84.2879 77.7359 85.6773 77.8219 85.6773C77.854 85.6773 77.8987 85.6216 77.9212 85.5533Z" fill="#6A221B" stroke="#6A221B" stroke-width="0.441667"/>
<path d="M45.2065 24.3659C46.4246 22.747 46.8883 21.2943 46.9753 18.8238C47.0434 16.8913 46.9208 16.3072 46.324 15.7216C45.9926 15.3964 45.9529 15.3068 45.9847 14.9563C46.0541 14.193 45.31 13.533 44.1906 13.3652C43.8364 13.312 43.6942 13.2401 43.633 13.0829C43.3949 12.471 42.5424 12.0255 41.533 11.9851C40.9167 11.9605 40.8236 11.9273 40.4686 11.6065C39.6241 10.8435 38.3513 10.4217 36.3843 10.2525C35.4741 10.1743 35.0619 10.0846 34.3495 9.80964C33.184 9.35981 32.7342 9.27355 32.6532 9.48447C32.6199 9.57132 32.664 9.85183 32.7512 10.1077C32.8383 10.3636 32.8947 10.5879 32.8765 10.6062C32.8582 10.6244 32.6975 10.5887 32.5193 10.5266C32.0918 10.3776 30.619 10.4727 30.0076 10.6889C29.574 10.8422 28.543 11.644 28.543 11.828C28.543 11.8716 28.6586 11.9364 28.7998 11.9719C29.0428 12.0328 29.0534 12.0617 28.9949 12.5037C28.8653 13.4823 29.5058 15.0039 30.4268 15.9051C30.8909 16.3593 31.1232 16.5016 31.7048 16.6886C32.7346 17.0197 33.5819 16.9509 35.2706 16.3989L36.5828 15.9699L37.2463 16.1336C37.6112 16.2237 38.0132 16.3652 38.1396 16.448C38.4467 16.6492 38.4409 17.1026 38.122 17.8236C37.9859 18.1313 37.846 18.627 37.811 18.9253L37.7472 19.4675L38.5467 20.2458C39.5462 21.2187 39.5504 21.2341 39.4107 23.2939C39.3407 24.3255 39.348 24.396 39.5442 24.5714C39.8266 24.8243 40.0042 24.7288 40.2965 24.1671C40.587 23.6086 42.2522 22.0218 42.7784 21.802C43.3965 21.5437 43.8039 21.6081 44.2265 22.0306C44.7791 22.5833 44.9662 23.5411 44.725 24.5815C44.6748 24.7983 44.6483 24.9904 44.6662 25.0083C44.684 25.0261 44.9272 24.7371 45.2065 24.3659Z" fill="#2D1612" stroke="#2D1612" stroke-width="0.441667"/>
<path d="M42.7237 25.221C43.2803 24.7778 43.3491 24.5506 43.0824 24.0349C42.892 23.6668 42.5018 23.5538 42.2398 23.7909C42.1291 23.8911 41.9635 23.9418 41.8467 23.9112C41.5925 23.8447 41.5932 23.9449 41.8505 24.4492C42.0051 24.7523 42.0399 24.9482 41.9906 25.2394C41.9041 25.7519 42.0619 25.748 42.7237 25.221ZM29.2299 66.9498C29.2419 66.6187 28.7325 65.2621 28.3048 64.4859C28.0214 63.9715 27.6234 63.5021 26.7725 62.6785C26.1404 62.0666 25.6042 61.585 25.5808 61.6083C25.5575 61.6316 25.85 61.9983 26.2309 62.4231C27.6469 64.0026 28.6582 65.5842 29.1689 67.017C29.2041 67.1155 29.2247 67.0929 29.2299 66.9498Z" fill="#6A221B" stroke="#6A221B" stroke-width="0.441667"/>
<path d="M30.659 31.1832C30.9929 31.0829 31.2393 30.894 31.174 30.7883C31.1481 30.7463 30.8335 30.6806 30.4749 30.6422C30.1162 30.6038 29.6914 30.5346 29.5306 30.4885C29.2844 30.4179 29.2382 30.4328 29.2382 30.5829C29.2382 30.6808 29.3308 30.8788 29.444 31.0226C29.6633 31.3014 30.0812 31.3566 30.659 31.1832Z" fill="#5D2822" stroke="#5D2822" stroke-width="0.441667"/>
<path d="M37.0796 40.0669C37.0796 40.0387 36.8793 39.587 36.6345 39.0631C36.2883 38.3223 36.1541 38.1241 36.0308 38.1714C35.9436 38.2048 35.8536 38.2322 35.8307 38.2322C35.8079 38.2322 35.792 38.4445 35.7955 38.7037C35.8007 39.0868 35.8186 39.1333 35.8916 38.9519C36.0514 38.5543 36.2713 38.705 36.4811 39.3558C36.5483 39.5644 36.6658 39.759 36.7422 39.7883C36.8186 39.8176 36.8811 39.9038 36.8811 39.9799C36.8811 40.0559 36.9257 40.1181 36.9803 40.1181C37.0349 40.1181 37.0796 40.0951 37.0796 40.0669Z" fill="#7E2E22" stroke="#7E2E22" stroke-width="0.441667"/>
<path d="M30.3301 20.7942C30.3301 20.6295 29.8908 20.1674 29.7342 20.1674C29.6064 20.1674 29.1466 20.6686 29.1424 20.8125C29.1408 20.8671 29.4073 20.9168 29.7347 20.9228C30.1853 20.9311 30.3301 20.8998 30.3301 20.7942Z" fill="#1F1011" stroke="#1F1011" stroke-width="0.441667"/>
<path d="M43.8644 24.7579C44.0717 24.0218 44.033 22.9293 43.7879 22.594C43.6135 22.3556 43.1217 22.4855 42.7149 22.8775L42.3896 23.1908L42.9226 23.2462C43.6717 23.324 43.8733 23.5825 43.7921 24.3609C43.7339 24.9199 43.7672 25.1031 43.8644 24.7579Z" fill="#6A221B" stroke="#6A221B" stroke-width="0.441667"/>
<path d="M36.7598 21.3337C36.6941 21.1196 35.1723 20.1789 34.7435 20.0875C34.3626 20.0062 33.2257 20.0854 32.6622 20.8126L33.8533 20.8716C34.7573 20.9163 35.2357 20.9937 35.8384 21.1929C36.748 21.4934 36.8118 21.5031 36.7598 21.3337Z" fill="#2D1612" stroke="#2D1612" stroke-width="0.441667"/>
<path d="M53.7478 99.373C55.967 97.6359 59.0151 94.7674 59.0151 94.4162C59.0151 94.3335 58.3787 94.8949 57.6007 95.6638C55.9845 97.2614 55.039 98.0971 53.5304 99.2618C52.4296 100.112 52.2633 100.271 52.4831 100.265C52.5546 100.263 53.1237 99.8615 53.7478 99.373Z" fill="#1F2B55" stroke="#1F2B55" stroke-width="0.441667"/>
<path d="M31.6204 29.0987C31.9971 29.011 32.8115 28.5983 32.8115 28.4952C32.8115 28.3272 31.766 28.1633 30.6775 28.1606L29.4864 28.1576L29.4559 28.5244C29.4292 28.8456 29.4624 28.9103 29.7239 29.0455C30.0451 29.2116 31.018 29.2389 31.6204 29.0987Z" fill="#FEFEFE" stroke="#FEFEFE" stroke-width="0.441667"/>
<path d="M30.7657 133.41C31.5895 133.175 34.2844 132.107 34.8625 131.787C35.1594 131.622 35.3065 131.588 35.3836 131.665C35.4607 131.742 35.4916 131.732 35.4928 131.629C35.4938 131.544 36.2209 131.1 37.2546 130.552C39.164 129.54 41.4815 128.073 41.5814 127.813C41.6541 127.624 40.8589 126.525 39.055 124.323C37.5818 122.524 37.2803 122.093 37.3262 121.848C37.3458 121.744 37.3652 121.629 37.3694 121.593C37.3897 121.418 40.2077 119.679 42.7369 118.28C46.4315 116.237 50.1102 113.973 52.1979 112.459C52.5702 112.19 52.9143 111.982 52.9626 111.999C53.011 112.016 53.4729 112.65 53.9893 113.407C56.5829 117.211 60.1468 121.253 63.2298 123.888C66.0099 126.264 71.5079 129.982 73.5068 130.839C74.1749 131.125 75.4605 131.214 76.4509 131.044C78.2105 130.741 84.5716 129.091 87.0058 128.305C88.6947 127.76 92.3657 126.326 92.3657 126.21C92.3657 126.187 92.1881 125.944 91.971 125.669C90.4329 123.724 89.1587 120.901 87.9986 116.869L87.7914 116.15H86.5047C83.7561 116.15 81.5703 116.729 78.7895 118.195C78.0924 118.563 77.5189 118.807 77.4495 118.766C76.4087 118.146 75.7227 117.03 73.8552 112.924C71.9458 108.725 70.4787 105.808 69.1621 103.593C68.4814 102.448 66.7957 99.8887 66.4588 99.4887L66.2621 99.2551L64.8968 100.535C62.6906 102.604 60.7115 104.278 56.8315 107.359C55.8761 108.117 55.0106 108.809 54.9082 108.895C54.7368 109.04 54.7129 109.038 54.6104 108.864C53.5169 107.014 52.1559 105.292 50.5157 103.686C49.4651 102.657 49.4044 102.576 49.3326 102.347C49.2732 102.406 49.0361 102.272 48.6924 101.984C47.7143 101.165 46.221 100.085 45.5411 99.7049C44.4315 99.0844 42.7887 98.3921 41.9203 98.179L41.0992 97.9775L39.7247 99.3959C34.5059 104.782 30.8136 109.376 27.6959 114.363C24.7609 119.058 24.1181 120.701 24.3534 122.909C24.4863 124.156 24.7936 124.912 26.2053 127.465C27.5934 129.976 29.1015 132.811 29.2946 133.273C29.4186 133.57 29.4844 133.618 29.7603 133.612C29.9369 133.608 30.3895 133.517 30.7657 133.41Z" fill="#1F2B55" stroke="#1F2B55" stroke-width="0.441667"/>
<path d="M46.9058 87.8559C49.0344 86.9953 51.1026 86.3707 53.4568 85.8776C54.3029 85.7004 55.0846 85.5165 55.1938 85.4692C55.5589 85.3108 59.0407 84.6849 59.5567 84.6849C59.7039 84.6849 59.8466 84.602 59.9129 84.4781C60.012 84.2929 60.0356 84.2879 60.1397 84.4303C60.2405 84.568 60.3313 84.5739 60.8252 84.4746C61.2592 84.3874 61.4278 84.3881 61.5351 84.4771C61.6423 84.566 61.685 84.5661 61.7145 84.4778C61.7357 84.414 62.5999 84.1917 63.6348 83.9839C66.215 83.4657 69.0781 82.5213 70.1053 81.8498L70.3268 81.705L69.9963 81.185C69.8145 80.899 69.0267 79.5483 68.2457 78.1835C67.4648 76.8187 66.3159 74.8439 65.6926 73.7953C63.2708 69.7201 63.2216 69.3177 63.8426 58.6501C63.8819 57.9742 63.8693 57.5896 63.8085 57.6079C63.7555 57.624 63.5834 57.4848 63.4258 57.2985C63.2682 57.1121 62.6246 56.5502 61.9954 56.0498C61.3662 55.5493 60.4066 54.7715 59.8627 54.3214C58.8024 53.4438 58.7434 53.4356 58.7231 54.1631C58.7113 54.5847 58.6121 54.9075 58.4945 54.9075C58.4291 54.9075 58.4182 54.5997 58.4631 54.0246L58.5322 53.1416L57.8215 52.5435C57.1769 52.001 57.0771 51.9498 56.856 51.7313C56.9032 51.7313 56.6602 51.4485 56.316 51.1029C55.6135 50.3977 55.0683 49.5555 55.4014 49.6901C55.5055 49.7322 56.4395 50.0485 57.4767 50.3927C58.5139 50.7369 60.2112 51.3168 61.2485 51.6813C62.2857 52.0457 63.447 52.4259 63.8292 52.5262C64.2113 52.6266 65.1493 52.8902 65.9136 53.1122C66.6779 53.3341 67.3616 53.5162 67.4329 53.5168C67.6463 53.5187 68.6912 51.1982 69.2427 49.498C69.526 48.6245 69.9732 47.2622 70.2367 46.4706C70.9103 44.4463 71.2677 43.2379 71.6161 41.8055C71.986 40.2857 72.0007 39.889 71.6954 39.675C71.4644 39.5132 69.7189 38.8187 67.3032 37.9274C65.5498 37.2806 65.2089 37.1064 63.7376 36.1063C62.2924 35.1241 60.8132 34.2846 59.7509 33.8436L58.9656 33.5175L54.5486 33.516C50.1822 33.5146 50.1124 33.5114 48.4443 33.2367C45.9441 32.8249 45.9132 32.8219 45.9132 32.9938C45.9132 33.2108 44.9818 35.0567 44.2969 36.1975C43.2215 37.9882 42.0371 39.2635 40.3106 40.4897C39.377 41.1527 38.6247 41.4415 37.5155 41.563C36.6024 41.6631 36.5638 41.6295 35.9993 40.2487C35.8353 39.8472 35.7889 39.5239 35.7889 38.7788C35.7889 38.2534 35.7522 37.8462 35.7073 37.8739C35.4414 37.8302 35.1577 37.329 35.0114 37.7602C34.8658 37.8945 34.2777 38.3322 33.7045 38.7328C30.0456 41.2901 28.6354 42.6077 27.9726 44.0884C27.184 45.8503 26.8007 47.5517 26.6645 49.895C26.5954 51.0859 26.528 51.5229 26.3277 52.0787C25.8551 53.3902 24.6721 57.1725 24.6721 57.372C24.6721 57.6232 24.9231 57.7066 27.8483 58.4265C29.0766 58.7288 30.2937 59.0411 30.5531 59.1207L31.0245 59.2653V58.9646C31.0245 58.7991 30.9815 58.1425 30.9288 57.5053C30.8028 55.9824 30.745 53.4187 30.8368 53.4187C30.8766 53.4187 31.0291 53.7872 31.176 54.2375C31.9632 56.6511 33.5218 60.0907 34.7855 62.203C35.7939 63.8885 40.5471 73.9815 41.4233 76.2976C41.5884 76.7343 41.9555 78.1413 42.2388 79.4242C42.7849 81.897 44.378 88.4005 44.4767 88.5604C44.5913 88.7457 44.994 88.629 46.9058 87.8559ZM47.0701 80.8882C47.7505 80.1909 50.3538 77.0882 51.4632 75.6524C53.1599 73.4564 54.5568 71.0793 55.5464 68.7044C56.139 67.2822 56.6253 66.2814 56.6915 66.3476C56.7584 66.4145 55.8869 68.8769 55.3343 70.1818C53.9738 73.3951 51.7477 76.6776 49.1953 79.2343C48.0793 80.3522 46.7565 81.4915 46.5612 81.5029C46.5082 81.506 46.7372 81.2295 47.0701 80.8882ZM57.6473 71.2354C57.6726 70.426 57.6868 70.3683 57.7993 70.6215C57.9342 70.9253 57.9752 72.9865 57.8489 73.1133C57.7283 73.2343 57.6172 72.1993 57.6473 71.2354ZM57.5459 67.4932C57.5675 66.0162 57.6108 65.4035 57.7 65.3145C57.7993 65.2155 57.8241 65.6876 57.8241 67.6754C57.8241 69.0419 57.791 70.1932 57.7505 70.2337C57.5882 70.396 57.5173 69.446 57.5459 67.4932ZM29.7098 51.7576C29.303 51.3354 29.4431 51.2054 29.8645 51.614C30.2388 51.9768 30.3312 52.0066 30.513 51.8027C30.8929 53.3318 30.8654 53.4893 30.3643 52.654C30.1745 52.3376 29.8799 51.9342 29.7098 51.7576ZM53.7876 43.3388C53.7238 41.36 53.8335 39.7396 54.1041 38.6688C54.2952 37.9124 54.7574 36.6214 54.8161 36.68C54.841 36.705 54.7261 37.1203 54.5606 37.6028C54.1573 38.7789 53.9711 39.9184 53.8906 41.7025C53.8414 42.7935 53.8551 43.2259 53.9421 43.3308C54.0218 43.4269 54.0262 43.4851 53.9555 43.5086C53.8821 43.5331 53.8804 43.8277 53.9497 44.4861C54.0745 45.6718 54.0711 46.0727 53.9402 45.5773C53.8898 45.3862 53.8211 44.3789 53.7876 43.3388ZM58.8328 45.1341C57.6857 44.7531 57.145 44.5293 57.2111 44.4632C57.2773 44.3971 57.7353 44.5046 58.5846 44.7857C60.5086 45.4226 60.9092 45.5831 60.8426 45.6909C60.8092 45.7451 60.7305 45.7706 60.6677 45.7475C60.605 45.7245 59.7793 45.4486 58.8328 45.1341ZM63.5335 38.7319C63.4987 38.6754 63.5285 38.63 63.6 38.631C63.8129 38.6338 66.4926 40.0682 66.5376 40.2035C66.5834 40.3409 63.6353 38.8967 63.5335 38.7319Z" fill="#0A8487" stroke="#0A8487" stroke-width="0.441667"/>
<path d="M47.5506 92.8196C48.8372 92.3174 50.712 91.991 53.556 91.7742C55.9927 91.5884 56.6112 91.4597 57.6385 90.9253C58.8223 90.3094 59.8819 89.1819 60.5955 87.7786C60.91 87.1601 61.1988 85.9421 61.1988 85.2347C61.1988 84.893 61.2511 84.5729 61.3179 84.5061C61.4688 84.3553 61.3204 84.3525 60.7052 84.4942C60.3303 84.5806 60.2427 84.5712 60.1423 84.434C60.0344 84.2864 60.0133 84.2903 59.9128 84.478C59.845 84.6048 59.704 84.6848 59.5482 84.6848C59.4084 84.6848 58.5278 84.817 57.5913 84.9786C55.485 85.3421 55.2255 85.3948 55.2793 85.4486C55.3028 85.4721 55.9357 85.3979 56.6857 85.2834C57.4357 85.169 58.0687 85.0949 58.0926 85.1187C58.1164 85.1426 58.0612 85.4678 57.9699 85.8415C57.5554 87.538 56.4903 88.9924 55.2135 89.6052C54.5433 89.9269 54.2431 89.993 52.0877 90.2936C50.8266 90.4694 49.6685 90.8425 48.8564 91.3347C48.2922 91.6766 46.7787 93.0128 46.9554 93.013C47.01 93.0131 47.2778 92.9261 47.5506 92.8196ZM57.7504 70.2337C57.7909 70.1932 57.8241 69.0419 57.8241 67.6753C57.8241 65.6876 57.7993 65.2154 57.7 65.3145C57.6108 65.4035 57.5675 66.0161 57.5459 67.4932C57.5173 69.4459 57.5881 70.3959 57.7504 70.2337Z" fill="#1D2955" stroke="#1D2955" stroke-width="0.441667"/>
<path d="M47.3521 80.9407C49.0397 79.589 51.3889 76.9591 52.8295 74.8086C53.6574 73.5727 54.7635 71.5292 55.334 70.1817C55.8866 68.8767 56.7581 66.4144 56.6912 66.3475C56.625 66.2813 56.1387 67.2821 55.5462 68.7042C54.5566 71.0792 53.1596 73.4563 51.4629 75.6523C50.3535 77.088 47.7503 80.1907 47.0699 80.8881C46.7369 81.2294 46.508 81.5059 46.561 81.5028C46.614 81.4997 46.97 81.2468 47.3521 80.9407Z" fill="#00363A" stroke="#00363A" stroke-width="0.441667"/>
<path d="M57.8488 73.1132C57.975 72.9864 57.934 70.9252 57.7992 70.6214C57.6867 70.3682 57.6725 70.4259 57.6472 71.2353C57.6171 72.1992 57.7282 73.2342 57.8488 73.1132Z" fill="#1D2955" stroke="#1D2955" stroke-width="0.441667"/>
<path d="M54.0402 45.6764C54.0449 45.54 54.0041 45.0043 53.9495 44.4859C53.8802 43.8276 53.8819 43.533 53.9554 43.5084C54.0261 43.4849 54.0217 43.4268 53.942 43.3307C53.8549 43.2258 53.8412 42.7934 53.8905 41.7023C53.971 39.9183 54.1572 38.7788 54.5605 37.6027C54.7259 37.1201 54.8409 36.7048 54.8159 36.6799C54.7573 36.6212 54.295 37.9123 54.104 38.6686C53.8334 39.7394 53.7236 41.3599 53.7874 43.3386C53.821 44.3787 53.8897 45.3861 53.9401 45.5772C54.0152 45.8619 54.0333 45.8798 54.0402 45.6764Z" fill="#004F57" stroke="#004F57" stroke-width="0.441667"/>
<path d="M60.8428 45.6908C60.9094 45.583 60.5088 45.4225 58.5848 44.7857C57.7355 44.5046 57.2775 44.3971 57.2113 44.4632C57.1452 44.5293 57.6859 44.753 58.833 45.1341C59.7795 45.4485 60.6052 45.7245 60.6679 45.7475C60.7307 45.7705 60.8094 45.745 60.8428 45.6908Z" fill="#00363A" stroke="#00363A" stroke-width="0.441667"/>
<path d="M30.7622 53.1443C30.8106 53.0659 30.762 52.8039 30.2624 51.7425C30.3315 52.0066 30.2391 51.9768 29.8648 51.614C29.4433 51.2054 29.3033 51.3355 29.7101 51.7576C29.8802 51.9342 30.1748 52.3376 30.3646 52.654C30.5543 52.9704 30.7333 53.1911 30.7622 53.1443Z" fill="#72251D" stroke="#72251D" stroke-width="0.441667"/>
<path d="M66.5375 40.2034C66.4924 40.0682 63.8128 38.6338 63.5999 38.6309C63.2918 38.6268 63.6899 38.881 65.0878 39.5812C65.9079 39.9919 66.5603 40.2719 66.5375 40.2034Z" fill="#00363A" stroke="#00363A" stroke-width="0.441667"/>
<path d="M63.8059 57.6211C63.833 57.5752 63.8854 56.4212 63.9225 55.0564L63.9897 52.5749L62.2716 52.0103C61.3266 51.6997 59.3705 51.0439 57.9246 50.553C56.4787 50.062 55.2845 49.6716 55.2706 49.6855C55.1945 49.7616 55.9321 50.7463 56.4063 51.2019C56.7093 51.493 56.9151 51.7312 56.7476 51.9941C57.0768 51.9497 57.1767 52.0009 57.8213 52.5435L58.532 53.1416L58.4629 54.0246C58.4179 54.5997 58.4288 54.9075 58.4943 54.9075C58.6119 54.9075 58.711 54.5846 58.7228 54.1631C58.7432 53.4356 58.8021 53.4437 59.8625 54.3214C60.4063 54.7714 61.3684 55.5512 62.0005 56.054C62.6327 56.5569 63.2864 57.1339 63.4533 57.3363C63.6201 57.5387 63.7788 57.667 63.8059 57.6211Z" fill="#1D2955" stroke="#1D2955" stroke-width="0.441667"/>
<path d="M19.1159 59.2763C20.1803 59.1411 21.4772 58.5958 22.4583 57.8709C22.7479 57.657 22.9863 57.5169 22.9881 57.5596C22.9966 57.76 23.3818 57.1383 23.3818 56.9242C23.3818 56.681 22.9264 55.8009 22.8007 55.8009C22.7644 55.8009 22.6142 55.9126 22.467 56.049C22.3198 56.1855 22.1528 56.2972 22.0958 56.2972C22.0389 56.2972 21.9922 56.357 21.9922 56.4303C21.9922 56.5779 21.1146 57.0913 20.8622 57.0913C20.774 57.0913 20.7019 57.1274 20.7019 57.1715C20.7019 57.2581 20.2219 57.486 19.5108 57.737C19.2651 57.8238 18.7157 57.9216 18.29 57.9547C17.5963 58.0085 17.4855 57.9922 16.9307 57.8575C16.9315 58.2636 17.1093 58.8342 17.3048 59.058C17.5072 59.2897 18.2784 59.3827 19.1159 59.2763Z" fill="#F7A62A" stroke="#F7A62A" stroke-width="0.441667"/>
<path d="M83.5749 78.9743C84.5311 78.7119 84.9479 78.1802 84.962 77.2041C84.9806 75.9351 84.267 75.1422 83.0464 75.0755C82.4861 75.0448 82.3408 75.0736 82.0519 75.2716C81.4282 75.6992 81.3021 75.9676 81.2637 76.9499C81.2392 77.5753 81.2628 77.8361 81.344 77.8361C81.3333 77.8335 81.5805 78.2479 81.5979 78.2302C81.5242 78.3495 81.8575 78.5936 82.2909 78.7377C82.5093 78.8103 82.7585 78.9275 82.8447 78.9981C82.9308 79.0686 83.0202 79.1224 83.0432 79.1176C83.0662 79.1127 83.3054 79.0482 83.5749 78.9743ZM82.6734 78.1753C82.2953 77.8915 81.8443 77.0243 81.8443 76.5814C81.8443 75.9106 82.627 75.4564 83.4103 75.6726C83.9044 75.8091 84.4898 76.4104 84.576 76.87C84.6277 77.1458 84.5904 77.3454 84.4219 77.6936C84.0187 78.5264 83.3765 78.7033 82.6734 78.1753Z" fill="#FEFEFE" stroke="#FEFEFE" stroke-width="0.441667"/>
<path d="M85.1199 77.6841C85.1199 77.6005 85.1869 77.5065 85.2688 77.475C85.3507 77.4435 85.4167 77.2998 85.4155 77.1555C85.413 76.8568 85.0871 76.0889 84.853 75.8303C84.5881 75.5376 84.5365 75.7262 84.7594 76.1721C84.9125 76.4782 84.9685 76.767 84.9618 77.2157C84.9567 77.557 84.9902 77.8361 85.0362 77.8361C85.0823 77.8361 85.1199 77.7677 85.1199 77.6841Z" fill="#320D08" stroke="#320D08" stroke-width="0.441667"/>
<path d="M83.89 78.3431C84.3223 78.0776 84.6644 77.3427 84.5758 76.87C84.4895 76.4105 83.9041 75.8092 83.41 75.6727C82.6267 75.4564 81.844 75.9106 81.844 76.5814C81.844 77.0244 82.295 77.8915 82.6731 78.1754C83.1285 78.5173 83.5188 78.5711 83.89 78.3431Z" fill="#A33628" stroke="#A33628" stroke-width="0.441667"/>
</g>
<defs>
<clipPath id="clip0_236_5432">
<rect width="100" height="100" rx="50" fill="white"/>
</clipPath>
</defs>
</svg>
